<?xml version="1.0" encoding="utf-8"?>
<!-- Generator: Adobe Illustrator 19.0.0, SVG Export Plug-In . SVG Version: 6.00 Build 0)  -->
<svg version="1.1" id="Livello_1" xmlns="http://www.w3.org/2000/svg" xmlns:xlink="http://www.w3.org/1999/xlink" x="0px" y="0px"
	 viewBox="0 0 1024 1024" style="enable-background:new 0 0 1024 1024;" xml:space="preserve">
<style type="text/css">
	.st0{fill:none;stroke:#000000;stroke-width:11;stroke-miterlimit:10;}
	.st1{fill:none;stroke:#000000;stroke-width:7;stroke-linecap:round;stroke-linejoin:round;stroke-miterlimit:10;}
	.st2{stroke:#000000;stroke-width:7;stroke-linecap:round;stroke-linejoin:round;stroke-miterlimit:10;}
	.st3{fill:none;stroke:#000000;stroke-width:11;stroke-linecap:round;stroke-linejoin:round;stroke-miterlimit:10;}
	.st4{fill:none;stroke:#000000;stroke-width:14;stroke-miterlimit:10;}
</style>
<circle id="XMLID_2_" class="st0" cx="408.5" cy="365.1" r="36"/>
<g id="XMLID_7_">
	<polygon id="XMLID_3_" class="st1" points="622.7,405.8 638.5,411.2 625.8,422.2 616.5,423.7 610,416.8 606.9,400.3 	"/>
	<polygon id="XMLID_4_" class="st1" points="642.7,445.9 637.2,461.7 626.3,449.1 624.8,439.8 631.7,433.3 648.1,430.1 	"/>
	<polygon id="XMLID_6_" class="st1" points="602.2,465.2 586.4,459.8 599,448.8 608.3,447.3 614.8,454.3 618,470.7 	"/>
	<polygon id="XMLID_5_" class="st1" points="582.2,425.1 587.6,409.3 598.6,421.9 600.1,431.2 593.1,437.7 576.7,440.9 	"/>
</g>
<rect id="XMLID_8_" x="505.4" y="465.3" transform="matrix(0.9453 0.3262 -0.3262 0.9453 182.1072 -143.9927)" class="st2" width="30" height="11.3"/>
<rect id="XMLID_10_" x="441.4" y="443.2" transform="matrix(0.9453 0.3262 -0.3262 0.9453 171.411 -124.3407)" class="st2" width="30" height="11.3"/>
<path id="XMLID_9_" class="st3" d="M597.7,132.5c34.5,42.4,37.8,56.6,33.8,61.4c-7.8,9.4-42.4-18.5-71.7-3.6
	c-14.6,7.4-27.2,25-23.8,38.3c5.4,21.4,47.9,14.8,57.5,38.9c6.9,17.3-6.2,43.2-26.5,55.4c-27.1,16.2-55.9,1.1-57.2,0.3"/>
<path id="XMLID_11_" class="st4" d="M610.6,539.5l-263.3-90.9c-25-8.6-38.3-36.1-29.7-61l24.5-70.9c8.6-25,36.1-38.3,61-29.7
	l263.3,90.9c25,8.6,38.3,36.1,29.7,61l-24.5,70.9C663,534.8,635.5,548.1,610.6,539.5z"/>
</svg>
