<?xml version="1.0" encoding="utf-8"?>
<!-- Generator: Adobe Illustrator 19.0.0, SVG Export Plug-In . SVG Version: 6.00 Build 0)  -->
<svg version="1.1" id="Livello_1" xmlns="http://www.w3.org/2000/svg" xmlns:xlink="http://www.w3.org/1999/xlink" x="0px" y="0px"
	 viewBox="0 0 1024 1024" style="enable-background:new 0 0 1024 1024;" xml:space="preserve">
<style type="text/css">
	.st0{fill:none;stroke:#000000;stroke-width:13;stroke-miterlimit:10;}
	.st1{fill:#FFFFFF;stroke:#000000;stroke-width:13;stroke-miterlimit:10;}
</style>
<path id="XMLID_1_" class="st0" d="M802.2,832.2H221.8c-21.4,0-39-17.5-39-39V212.8c0-21.4,17.5-39,39-39h580.4
	c21.5,0,39,17.5,39,39v580.4C841.2,814.6,823.6,832.2,802.2,832.2z"/>
<path id="XMLID_4_" class="st0" d="M186,503c47,0,82.5,0,129.5,0c6.6,0-18.3,48.2,31.2,47.9c50.7-0.3,25.1-47.9,32-47.9
	c51.3,0,84.1,0,136.5,0"/>
<path id="XMLID_2_" class="st0" d="M515.3,503c0,47,0,82.5,0,129.5c0,6.6-48.2-18.3-47.9,31.2c0.3,50.7,47.9,25.1,47.9,32
	c0,51.3,0,84.1,0,136.5"/>
<path id="XMLID_7_" class="st1" d="M512,503"/>
<path id="XMLID_3_" class="st0" d="M841.3,503c-47,0-82.5,0-129.5,0c-6.6,0,18.3-48.2-31.2-47.9c-50.7,0.3-25.1,47.9-32,47.9
	c-51.3,0-84.1,0-136.5,0"/>
<path id="XMLID_5_" class="st0" d="M515.3,177.2c0,47,0,82.5,0,129.5c0,6.6-48.2-18.3-47.9,31.2c0.3,50.7,47.9,25.1,47.9,32
	c0,51.3,0,84.1,0,136.5"/>
</svg>
